{"title":"The Favor 1994 DVDRip XviD titler","uid":10237009,"size":958253549,"categoryP":"video","categoryS":"movies","magnet":"?xt=urn:btih:596748670c98821c8db478278d7624fade064c47&amp;dn=The+Favor+1994+DVDRip+XviD+titler&amp;tr=udp%3A%2F%2Ftracker.openbittorrent.com%3A80&amp;tr=udp%3A%2F%2Fopen.demonii.com%3A1337&amp;tr=udp%3A%2F%2Ftracker.coppersurfer.tk%3A6969&amp;tr=udp%3A%2F%2Fexodus.desync.com%3A6969","seeders":1,"leechers":0,"uploader":"movieZ.freak","files":4,"time":1401196593,"description":"SOURCE: DVD5\n\n\n &lt;a href=&quot;\nhttp://www.imdb.com/title/tt0109783/&quot; rel=&quot;nofollow&quot; target=&quot;_NEW&quot;&gt;\nhttp://www.imdb.com/title/tt0109783/&lt;/a&gt;\n\n\n &lt;a href=&quot;\nhttp://www.rottentomatoes.com/m/favor/&quot; rel=&quot;nofollow&quot; target=&quot;_NEW&quot;&gt;\nhttp://www.rottentomatoes.com/m/favor/&lt;/a&gt;\n\n\n &lt;a href=&quot;\nhttp://en.wikipedia.org/wiki/The_Favor&quot; rel=&quot;nofollow&quot; target=&quot;_NEW&quot;&gt;\nhttp://en.wikipedia.org/wiki/The_Favor&lt;/a&gt;\n\n\n\n\n- SAMPLE: Yes\n\n\n- SUBTITLE: English\n\n\n- LANGUAGE / AUDIO: English\n\n\n\n\nDVD Menu\n-----------------  &lt;a href=&quot;\nhttp://someimage.com/vX0N&quot; rel=&quot;nofollow&quot; target=&quot;_NEW&quot;&gt;\nhttp://someimage.com/vX0N&lt;/a&gt;\n\n\n\nSCREENSHOTS:\n-------------------    &lt;a href=&quot;\nhttp://someimage.com/NTq1&quot; rel=&quot;nofollow&quot; target=&quot;_NEW&quot;&gt;\nhttp://someimage.com/NTq1&lt;/a&gt;\n\n\n\nNOTE:\n----------\nI guess this is RARE movie because of the bad ratings, and because it's 20 year old movie. :)\n\n\n\nDIRECTOR: Donald Petrie\n\n\n\n\nCAST: Bill Pullman, Elizabeth McGovern, Brad Pitt, Harley Jane Kozak, Larry Miller, Ken Wahl,...\n\n\n\nPLOT:\n-----------\nThey say you can't miss what you never had, but one woman wants to put that idea to the test in this comedy. Kathy Whiting (Harley Jane Kozak) is a housewife and mother of two who enjoys a happy but unexciting relationship with her husband Peter (Bill Pullman), while her best friend Emily Embrey (Elizabeth McGovern) runs an art gallery and is living with a good-looking artist, Elliot Fowler (Brad Pitt). Both women feel that a sense of romantic adventure is missing from their lives, and Kathy has never been able to forget Tom Andrews (Ken Wahl), a football player that she was in love with in high school but never slept with (she was saving herself for marriage at the time). So when Kathy learns that Tom is living in Denver, and Emily will be going there on business soon, she asks Emily for a very big favor: find Tom, seduce him, and then give her a full report on what she's been wondering about these 15 years since graduation. The Favor was filmed in 1991 but went unreleased until 1994, after A River Runs Through It and Legends of the Fall had made fourth-billed Brad Pitt a box-office draw.\n\n\n************************************\n\n- Duration: 1h 37mn\n\n- Bit rate: 1154 Kbps\n\n- Res: 720 x 400\n\n- AR: 16:9\n\n- FPS: 23.976 fps\n\n- Audio: AC3, 2 channels, 128 Kbps\n\n************************************\n\n\nGeneral\n------------\nFormat : AVI\nFormat/Info : Audio Video Interleave\nFile size : 901 MiB\nDuration : 1h 37mn\nOverall bit rate : 1291 Kbps\nWriting application : VirtualDubMod 1.5.10.2\nWriting library : VirtualDub build 35491\n\n\nVideo\n------------\nFormat : MPEG-4 Visual\nFormat profile : Advanced Simple@L5\nFormat settings, BVOP : 1\nFormat settings, QPel : No\nFormat settings, GMC : No warppoints\nFormat settings, Matrix : Custom\nCodec ID : XVID\nCodec ID/Hint : XviD\nDuration : 1h 37mn\nBit rate : 1154 Kbps\nWidth : 720 pixels\nHeight : 400 pixels\nDisplay aspect ratio : 16:9\nFrame rate : 23.976 fps\nColor space : YUV\nChroma subsampling : 4:2:0\nBit depth : 8 bits\nScan type : Progressive\nCompression mode : Lossy\nBits/(Pixel*Frame) : 0.167\nStream size : 805 MiB (89%)\nWriting library : XviD 65\n\n\nAudio\n-----------\nFormat : AC-3\nFormat/Info : Audio Coding 3\nMode extension : CM (complete main)\nFormat settings, Endianness : Big\nCodec ID : 2000\nDuration : 1h 37mn\nBit rate mode : Constant\nBit rate : 128 Kbps\nChannel(s) : 2 channels\nChannel positions : Front: L R\nSampling rate : 48.0 KHz\nBit depth : 16 bits\nCompression mode : Lossy\nStream size : 89.3 MiB (10%)\nAlignment : Aligned on interleaves\nInterleave, duration : 42 ms (1.00 video frame)\nInterleave, preload duration : 512 ms","torrent":{"xt":"urn:btih:596748670c98821c8db478278d7624fade064c47","amp;dn":"The+Favor+1994+DVDRip+XviD+titler","amp;tr":["udp%3A%2F%2Ftracker.openbittorrent.com%3A80","udp%3A%2F%2Fopen.demonii.com%3A1337","udp%3A%2F%2Ftracker.coppersurfer.tk%3A6969","udp%3A%2F%2Fexodus.desync.com%3A6969"],"infoHash":"596748670c98821c8db478278d7624fade064c47","infoHashBuffer":{"type":"Buffer","data":[89,103,72,103,12,152,130,28,141,180,120,39,141,118,36,250,222,6,76,71]},"announce":[],"urlList":[]}}